<svg width="50" height="50" viewBox="0 0 50 50" fill="none" xmlns="http://www.w3.org/2000/svg">
<g id="icons8-open_archive 1">
<path id="Vector" d="M7 2V48H43V2H7ZM10 4H40L37.3711 7.74219L36.0664 6.80469L34.8984 8.42578L36.2227 9.37891L35.2852 10.7109L33.9336 9.75781L32.7812 11.3906L34.1367 12.3477L33.2305 13.6406L31.8594 12.6523L30.6875 14.2773L32.0781 15.2773L31.1406 16.6094L29.7188 15.6094L28.5664 17.2383L29.9961 18.2461L29.0703 19.5586L27.6211 18.5352L26.4688 20.1719L27.9219 21.1992L27.1719 22.2656C27.0781 22.2578 26.9883 22.2383 26.8945 22.2383H23.1055C23.0117 22.2383 22.9219 22.2578 22.832 22.2656L22.0781 21.1953L23.5312 20.1719L22.3789 18.5352L20.9297 19.5586L20.0078 18.2461L21.4336 17.2383L20.2812 15.6094L18.8594 16.6094L17.9219 15.2773L19.3125 14.2773L18.1406 12.6523L16.7695 13.6406L15.8633 12.3477L17.2188 11.3906L16.0664 9.75781L14.7148 10.7109L13.7773 9.375L15.1016 8.42578L13.9336 6.80469L12.6289 7.74219L10 4ZM23.1055 24.0781H26.8945C27.4609 24.0781 27.8438 24.4492 27.8438 25V25.9219C27.8438 26.4727 27.4609 26.8398 26.8945 26.8398H23.1055C22.5391 26.8398 22.1562 26.4727 22.1562 25.9219V25C22.1562 24.8633 22.1836 24.7344 22.2266 24.625C22.3594 24.2852 22.6797 24.0781 23.1055 24.0781ZM22.7891 28.6523C22.8945 28.6602 22.9961 28.6797 23.1055 28.6797H26.8945C27.0039 28.6797 27.1055 28.6602 27.2109 28.6523C27.6484 29.8359 28.7891 32.9727 28.7891 34.1992C28.7891 36.2227 27.0859 37.8789 25 37.8789C22.9141 37.8789 21.2109 36.2227 21.2109 34.1992C21.2109 32.9727 22.3516 29.8359 22.7891 28.6523ZM25 32.8203C24.2148 32.8203 23.5781 33.4375 23.5781 34.1992C23.5781 34.5664 23.7266 34.918 23.9961 35.1758C24.2617 35.4336 24.6211 35.582 25 35.5781C25.3789 35.582 25.7383 35.4336 26.0039 35.1758C26.2734 34.918 26.4219 34.5664 26.4219 34.1992C26.4219 33.4375 25.7852 32.8203 25 32.8203Z" fill="#FF9900"/>
</g>
</svg>
