<svg width="50" height="50" viewBox="0 0 50 50" fill="none" xmlns="http://www.w3.org/2000/svg">
<path d="M25 2C20.3906 2 16.7031 4.56641 16.0938 8H3C1.34766 8 0 9.34766 0 11V28C0 28.5508 0.449219 29 1 29H20C20 27.3477 21.3477 26 23 26H27C28.6523 26 30 27.3477 30 29H49C49.5508 29 50 28.5508 50 28V11C50 9.34766 48.6523 8 47 8H33.9062C33.2969 4.56641 29.6094 2 25 2ZM25 4C28.4492 4 31.25 5.6875 31.875 8H18.125C18.75 5.6875 21.5508 4 25 4ZM23 28C22.4492 28 22 28.4492 22 29V31C22 31.5508 22.4492 32 23 32H27C27.5508 32 28 31.5508 28 31V29C28 28.4492 27.5508 28 27 28H23ZM0 30.8125V45C0 46.6523 1.34766 48 3 48H47C48.6523 48 50 46.6523 50 45V30.8125C49.6875 30.9258 49.3516 31 49 31H30C30 32.6523 28.6523 34 27 34H23C21.3477 34 20 32.6523 20 31H1C0.648438 31 0.3125 30.9258 0 30.8125Z" fill="#FF9900"/>
</svg>
