<svg width="20" height="20" viewBox="0 0 20 20" fill="none" xmlns="http://www.w3.org/2000/svg">
<path d="M6.00016 1.33301L4.66683 5.99967H4.67594C4.68931 5.98191 4.70538 5.96652 4.71891 5.94889C3.85396 7.07348 3.3335 8.47562 3.3335 9.99967C3.3335 11.5237 3.85396 12.9259 4.71891 14.0505C4.70538 14.0328 4.68931 14.0174 4.67594 13.9997H4.66683L6.00016 18.6663H14.0002L15.3335 13.9997H15.3244C15.311 14.0174 15.2949 14.0328 15.2814 14.0505C15.888 13.2618 16.3273 12.3385 16.5327 11.3291C16.6304 11.3492 16.7314 11.3471 16.8282 11.3229C16.925 11.2988 17.0151 11.2532 17.0919 11.1896C17.1688 11.126 17.2304 11.046 17.2722 10.9554C17.314 10.8649 17.3349 10.7661 17.3335 10.6663V9.33301C17.3347 9.24381 17.318 9.15528 17.2844 9.07266C17.2508 8.99003 17.201 8.91499 17.1378 8.85197C17.0747 8.78896 16.9995 8.73925 16.9169 8.7058C16.8342 8.67235 16.7456 8.65583 16.6564 8.65723C16.6148 8.65813 16.5734 8.66293 16.5327 8.67155C16.3274 7.66166 15.8883 6.73791 15.2814 5.94889C15.2949 5.96652 15.311 5.98191 15.3244 5.99967H15.3335L14.0002 1.33301H6.00016ZM10.0002 4.66634C12.9536 4.66634 15.3335 7.04626 15.3335 9.99967C15.3335 12.9531 12.9536 15.333 10.0002 15.333C7.04675 15.333 4.66683 12.9531 4.66683 9.99967C4.66683 7.04626 7.04675 4.66634 10.0002 4.66634ZM9.98975 6.65723C9.81316 6.65999 9.64489 6.73269 9.52185 6.85939C9.39882 6.98609 9.33108 7.15642 9.3335 7.33301V9.72363L7.86214 11.195C7.79816 11.2564 7.74708 11.33 7.71189 11.4114C7.6767 11.4928 7.6581 11.5805 7.6572 11.6692C7.6563 11.7578 7.6731 11.8458 7.70663 11.9279C7.74015 12.0101 7.78973 12.0847 7.85245 12.1474C7.91517 12.2101 7.98977 12.2597 8.07189 12.2932C8.15401 12.3267 8.24199 12.3435 8.33069 12.3426C8.41938 12.3417 8.507 12.3231 8.58842 12.288C8.66984 12.2528 8.74342 12.2017 8.80485 12.1377L10.4715 10.471C10.5965 10.346 10.6668 10.1765 10.6668 9.99967V7.33301C10.6681 7.24381 10.6514 7.15528 10.6178 7.07266C10.5841 6.99003 10.5343 6.91499 10.4712 6.85197C10.408 6.78896 10.3329 6.73926 10.2502 6.7058C10.1675 6.67235 10.0789 6.65583 9.98975 6.65723Z" fill="#FF9900"/>
</svg>
