<svg width="50" height="50" viewBox="0 0 50 50" fill="none" xmlns="http://www.w3.org/2000/svg">
<g clip-path="url(#clip0_65_527)">
<path d="M45.833 6.25H4.16634C3.61381 6.25 3.0839 6.46949 2.6932 6.86019C2.3025 7.25089 2.08301 7.7808 2.08301 8.33333V41.6667C2.08301 42.2192 2.3025 42.7491 2.6932 43.1398C3.0839 43.5305 3.61381 43.75 4.16634 43.75H45.833C46.3855 43.75 46.9154 43.5305 47.3061 43.1398C47.6968 42.7491 47.9163 42.2192 47.9163 41.6667V8.33333C47.9163 7.7808 47.6968 7.25089 47.3061 6.86019C46.9154 6.46949 46.3855 6.25 45.833 6.25ZM19.0622 28.6458C19.3781 28.9244 19.6021 29.2921 19.7048 29.7006C19.8075 30.1091 19.7839 30.539 19.6373 30.9339C19.4907 31.3287 19.2278 31.6698 18.8834 31.9122C18.5389 32.1546 18.1291 32.2869 17.708 32.2917C17.207 32.2957 16.723 32.1096 16.3538 31.7708L10.1038 26.5625C9.88216 26.367 9.70462 26.1266 9.58301 25.8572C9.4614 25.5878 9.3985 25.2956 9.3985 25C9.3985 24.7044 9.4614 24.4122 9.58301 24.1428C9.70462 23.8734 9.88216 23.633 10.1038 23.4375L16.3538 18.2292C16.5515 18.01 16.7935 17.8354 17.0637 17.7168C17.334 17.5982 17.6264 17.5384 17.9215 17.5413C18.2166 17.5443 18.5077 17.6098 18.7756 17.7338C19.0434 17.8577 19.2819 18.0371 19.4752 18.2601C19.6685 18.4831 19.8122 18.7447 19.8968 19.0274C19.9813 19.3102 20.0049 19.6077 19.9658 19.9002C19.9268 20.1927 19.826 20.4736 19.6702 20.7243C19.5145 20.975 19.3072 21.1896 19.0622 21.3542L14.583 25L19.0622 28.6458ZM29.0622 16.1458L24.8955 34.8958C24.7987 35.3458 24.5482 35.7479 24.187 36.0331C23.8258 36.3182 23.3764 36.4686 22.9163 36.4583H22.3955C22.1308 36.3984 21.8812 36.2846 21.6623 36.1241C21.4433 35.9636 21.2598 35.7598 21.123 35.5253C20.9862 35.2908 20.8992 35.0307 20.8672 34.7611C20.8352 34.4916 20.859 34.2183 20.9372 33.9583L25.1038 15.2083C25.125 14.9024 25.2135 14.605 25.3628 14.3372C25.5122 14.0695 25.7189 13.838 25.968 13.6593C26.2172 13.4806 26.5027 13.3591 26.8043 13.3035C27.1058 13.2479 27.4159 13.2595 27.7124 13.3375C28.0089 13.4155 28.2846 13.5581 28.5196 13.7549C28.7547 13.9517 28.9435 14.198 29.0724 14.4762C29.2013 14.7544 29.2673 15.0577 29.2655 15.3643C29.2637 15.6709 29.1943 15.9733 29.0622 16.25V16.1458ZM39.8955 26.5625L33.6455 31.7708C33.2763 32.1096 32.7924 32.2957 32.2913 32.2917C31.8702 32.2869 31.4604 32.1546 31.116 31.9122C30.7716 31.6698 30.5087 31.3287 30.362 30.9339C30.2154 30.539 30.1919 30.1091 30.2945 29.7006C30.3972 29.2921 30.6213 28.9244 30.9372 28.6458L35.4163 25L30.9372 21.3542C30.5967 20.9767 30.406 20.4878 30.4009 19.9794C30.3959 19.4711 30.5769 18.9785 30.9098 18.5943C31.2427 18.2102 31.7046 17.961 32.2085 17.8938C32.7124 17.8265 33.2235 17.9458 33.6455 18.2292L39.8955 23.4375C40.1172 23.633 40.2947 23.8734 40.4163 24.1428C40.5379 24.4122 40.6008 24.7044 40.6008 25C40.6008 25.2956 40.5379 25.5878 40.4163 25.8572C40.2947 26.1266 40.1172 26.367 39.8955 26.5625Z" fill="#FF9900"/>
</g>
<defs>
<clipPath id="clip0_65_527">
<rect width="50" height="50" fill="white"/>
</clipPath>
</defs>
</svg>
