<svg width="50" height="50" viewBox="0 0 50 50" fill="none" xmlns="http://www.w3.org/2000/svg">
<path d="M25 0C21.6914 0 19 2.69141 19 6C19 9.30859 21.6914 12 25 12C28.3086 12 31 9.30859 31 6C31 2.69141 28.3086 0 25 0ZM25.0312 13C15.2852 13 15 18.75 15 19.4062V29.1875C15 30.7305 16.2695 32 17.8125 32H19V22C19 21.7227 19.2227 21.5 19.5 21.5C19.7773 21.5 20 21.7227 20 22V43.3438C20 44.8164 21.1836 46 22.6562 46H27.3438C28.8164 46 30 44.8164 30 43.3438V22C30 21.7227 30.2266 21.5 30.5 21.5C30.7734 21.5 31 21.7227 31 22V32H32.1875C33.7305 32 35 30.7305 35 29.1875V19.4062C35 18.3359 34.5234 13 25.0312 13ZM16.8438 36.5625C13.5273 37.0508 10.707 37.8359 8.625 38.8438C7.58203 39.3477 6.73828 39.8867 6.09375 40.5625C5.44922 41.2383 5 42.0859 5 43C5 44.2578 5.80469 45.3008 6.90625 46.125C8.00781 46.9492 9.46094 47.6211 11.25 48.1875C14.8281 49.3164 19.668 50 25 50C30.332 50 35.1719 49.3164 38.75 48.1875C40.5391 47.6211 41.9922 46.9453 43.0938 46.125C44.1953 45.3047 45 44.2578 45 43C45 42.0859 44.5508 41.2383 43.9062 40.5625C43.2617 39.8867 42.418 39.3477 41.375 38.8438C39.293 37.8359 36.4727 37.0508 33.1562 36.5625C32.6055 36.4766 32.0859 36.8555 32 37.4062C31.9141 37.957 32.293 38.4766 32.8438 38.5625C36.0195 39.0312 38.707 39.7578 40.5 40.625C41.3984 41.0586 42.0664 41.5469 42.4688 41.9688C42.8711 42.3906 43 42.7109 43 43C43 43.3984 42.7266 43.918 41.9062 44.5312C41.0859 45.1445 39.7734 45.7617 38.125 46.2812C34.8281 47.3242 30.1641 48 25 48C19.8359 48 15.1719 47.3242 11.875 46.2812C10.2266 45.7617 8.91406 45.1445 8.09375 44.5312C7.27344 43.918 7 43.4023 7 43C7 42.7109 7.12891 42.3906 7.53125 41.9688C7.93359 41.5469 8.60156 41.0586 9.5 40.625C11.293 39.7578 13.9805 39.0312 17.1562 38.5625C17.707 38.4766 18.0859 37.957 18 37.4062C17.9141 36.8555 17.3945 36.4766 16.8438 36.5625Z" fill="#FF9900"/>
</svg>
