<svg width="50" height="50" viewBox="0 0 50 50" fill="none" xmlns="http://www.w3.org/2000/svg">
<path d="M5.00022 4C4.45022 4 4.00022 4.45 4.00022 5V20C4.00022 20.55 4.45022 21 5.00022 21H11.0002V29H10.1467C10.0917 28.9921 10.0362 28.9889 9.98069 28.9902C9.94343 28.9914 9.90626 28.9947 9.86937 29H5.00022C4.73502 29 4.48068 29.1054 4.29315 29.2929C4.10562 29.4805 4.00025 29.7348 4.00022 30V39.8477C3.98172 39.9576 3.98172 40.0698 4.00022 40.1797V44.8477C3.97373 45.0049 3.98523 45.1663 4.03377 45.3182C4.08231 45.4701 4.16648 45.6082 4.27925 45.721C4.39202 45.8337 4.53013 45.9179 4.68205 45.9665C4.83397 46.015 4.9953 46.0265 5.15257 46H20.0002C20.2654 46 20.5198 45.8946 20.7073 45.7071C20.8948 45.5195 21.0002 45.2652 21.0002 45V40.127C21.0129 40.0356 21.0129 39.9429 21.0002 39.8516V39H29.0002V45C29.0002 45.55 29.4502 46 30.0002 46H45.0002C45.5502 46 46.0002 45.55 46.0002 45V30C46.0002 29.45 45.5502 29 45.0002 29H39.0002V21H45.0002C45.5502 21 46.0002 20.55 46.0002 20V5C46.0002 4.45 45.5502 4 45.0002 4H30.0002C29.4502 4 29.0002 4.45 29.0002 5V11H21.0002V5C21.0002 4.45 20.5502 4 20.0002 4H5.00022ZM21.0002 13H29.0002V20C29.0002 20.55 29.4502 21 30.0002 21H37.0002V29H30.0002C29.4502 29 29.0002 29.45 29.0002 30V37H21.0002V35.127C21.0129 35.0356 21.0129 34.9429 21.0002 34.8516V33.6562V30C21.0002 29.7348 20.8948 29.4805 20.7073 29.2929C20.5198 29.1054 20.2654 29 20.0002 29H15.1467C15.0917 28.9921 15.0362 28.9889 14.9807 28.9902C14.9434 28.9914 14.9063 28.9947 14.8694 29H13.0002V21H20.0002C20.5502 21 21.0002 20.55 21.0002 20V13ZM6.00022 31H7.58616L6.00022 32.5859V31ZM10.4143 31H12.5862L6.00022 37.5859V35.4141C6.00284 35.4115 6.00545 35.4089 6.00804 35.4062L10.4143 31ZM15.4143 31H17.5862L6.00022 42.5859V40.4141L15.4143 31ZM19.0002 32.4141V33.6562V34.5859L9.69358 43.8926C9.65915 43.926 9.62716 43.9619 9.59788 44H7.41429L19.0002 32.4141ZM19.0002 37.4141V39.5859L14.6936 43.8926C14.6591 43.926 14.6272 43.9619 14.5979 44H12.4143L19.0002 37.4141ZM19.0002 42.4141V44H17.4143L19.0002 42.4141Z" fill="#FF9900"/>
</svg>
