<svg width="20" height="20" viewBox="0 0 20 20" fill="none" xmlns="http://www.w3.org/2000/svg">
<path d="M9.99984 1.33301C5.94984 1.33301 2.6665 4.61634 2.6665 8.66634C2.6665 13.489 7.4345 15.7977 8.03184 16.335C8.64184 16.8837 9.14584 18.1137 9.34917 18.811C9.44784 19.1497 9.72517 19.321 9.99984 19.3283C10.2752 19.3203 10.5518 19.149 10.6505 18.811C10.8538 18.1137 11.3578 16.8843 11.9678 16.335C12.5652 15.7977 17.3332 13.489 17.3332 8.66634C17.3332 4.61634 14.0498 1.33301 9.99984 1.33301ZM9.99984 10.6663C8.89517 10.6663 7.99984 9.77101 7.99984 8.66634C7.99984 7.56167 8.89517 6.66634 9.99984 6.66634C11.1045 6.66634 11.9998 7.56167 11.9998 8.66634C11.9998 9.77101 11.1045 10.6663 9.99984 10.6663Z" fill="#FF9900"/>
</svg>
