<svg width="50" height="50" viewBox="0 0 50 50" fill="none" xmlns="http://www.w3.org/2000/svg">
<path d="M15.9296 5C15.7244 5.00107 15.5244 5.06488 15.3565 5.18289C15.1886 5.30089 15.0607 5.46743 14.9902 5.66016L7.48043 26.6602C7.42589 26.8111 7.40847 26.9729 7.42966 27.132C7.45084 27.2911 7.50999 27.4427 7.60212 27.5741C7.69425 27.7055 7.81666 27.8128 7.95899 27.8869C8.10132 27.9611 8.2594 27.9998 8.41988 28H41.58C41.7405 27.9998 41.8986 27.9611 42.0409 27.8869C42.1833 27.8128 42.3057 27.7055 42.3978 27.5741C42.4899 27.4427 42.5491 27.2911 42.5703 27.132C42.5914 26.9729 42.574 26.8111 42.5195 26.6602L36.4296 9.64062C34.0096 7.94062 32.2598 6.7 29.8398 5H15.9296ZM8.38082 30L7.44918 32.6797C7.3982 32.8304 7.38394 32.9912 7.40758 33.1486C7.43122 33.3059 7.49209 33.4554 7.58511 33.5845C7.67813 33.7137 7.80063 33.8187 7.94242 33.891C8.08421 33.9632 8.2412 34.0006 8.40035 34H41.5996C41.7587 34.0006 41.9157 33.9632 42.0575 33.891C42.1993 33.8187 42.3218 33.7137 42.4148 33.5845C42.5078 33.4554 42.5687 33.3059 42.5923 33.1486C42.616 32.9912 42.6017 32.8304 42.5507 32.6797L41.6191 30H8.38082ZM8.38082 36L7.44918 38.6797C7.3982 38.8304 7.38394 38.9912 7.40758 39.1486C7.43122 39.3059 7.49209 39.4554 7.58511 39.5845C7.67813 39.7137 7.80063 39.8187 7.94242 39.891C8.08421 39.9632 8.2412 40.0006 8.40035 40H41.5996C41.7587 40.0006 41.9157 39.9632 42.0575 39.891C42.1993 39.8187 42.3218 39.7137 42.4148 39.5845C42.5078 39.4554 42.5687 39.3059 42.5923 39.1486C42.616 38.9912 42.6017 38.8304 42.5507 38.6797L41.6191 36H8.38082ZM8.38082 42L7.44918 44.6797C7.3982 44.8304 7.38394 44.9912 7.40758 45.1486C7.43122 45.3059 7.49209 45.4554 7.58511 45.5845C7.67813 45.7137 7.80063 45.8187 7.94242 45.891C8.08421 45.9632 8.2412 46.0006 8.40035 46H41.5996C41.7587 46.0006 41.9157 45.9632 42.0575 45.891C42.1993 45.8187 42.3218 45.7137 42.4148 45.5845C42.5078 45.4554 42.5687 45.3059 42.5923 45.1486C42.616 44.9912 42.6017 44.8304 42.5507 44.6797L41.6191 42H8.38082Z" fill="#FF9900"/>
</svg>
