<svg width="20" height="20" viewBox="0 0 20 20" fill="none" xmlns="http://www.w3.org/2000/svg">
<path d="M14.1498 11.9258C13.8792 11.7672 13.5465 11.7705 13.2772 11.9305L11.9132 12.7432C11.6078 12.9252 11.2265 12.9038 10.9465 12.6852C10.4625 12.3072 9.68318 11.6712 9.00518 10.9932C8.32718 10.3152 7.69118 9.53582 7.31318 9.05182C7.09451 8.77182 7.07318 8.39049 7.25518 8.08516L8.06784 6.72115C8.22851 6.45182 8.22984 6.11649 8.07118 5.84582L6.06984 2.42716C5.87584 2.09649 5.49051 1.93382 5.11784 2.02516C4.75584 2.11316 4.28584 2.32782 3.79318 2.82116C2.25051 4.36382 1.43118 6.96582 7.23251 12.7672C13.0338 18.5685 15.6352 17.7498 17.1785 16.2065C17.6725 15.7125 17.8865 15.2418 17.9752 14.8792C18.0652 14.5072 17.9052 14.1245 17.5752 13.9312C16.7512 13.4492 14.9738 12.4085 14.1498 11.9258Z" fill="#FF9900"/>
</svg>
