<svg width="169" height="240" viewBox="0 0 169 240" fill="none" xmlns="http://www.w3.org/2000/svg">
<g opacity="0.4" clip-path="url(#clip0_64_273)">
<path d="M258.882 49.346C235.001 10.3564 184.367 2.68729 174.807 1.23932C171.466 0.733012 103.673 -8.56497 62.9121 32.777C6.17446 90.3227 35.9332 211.376 102.944 235.492C142.04 249.561 182.895 226.705 192.714 221.212C253.393 187.266 292.302 103.909 258.882 49.346H258.882Z" fill="#ECF3FE"/>
<path d="M97.0699 55.4271C95.0805 52.2992 90.9256 51.3723 87.7901 53.3569L60.8857 70.3863L97.4612 56.0425L97.0691 55.4263L97.0699 55.4271Z" fill="#3B82F4"/>
<path d="M68.9527 222.966C70.9421 226.093 75.097 227.02 78.2326 225.036L120.55 198.25L66.6709 219.379L68.9518 222.966H68.9527Z" fill="#3B82F4"/>
<path d="M3.12245 106.949C-0.0130598 108.934 -0.942261 113.078 1.04715 116.206L29.8333 161.464L7.30689 104.301L3.12245 106.949Z" fill="#3B82F4"/>
<path d="M56.7705 72.991L8.10156 103.796L32.4447 165.568L66.1667 218.585L124.666 195.644L157.345 174.959L131.687 109.852L97.966 56.8357L56.7705 72.991Z" fill="#3B82F4"/>
<path d="M164.975 162.185L134.299 113.957L158.141 174.456L162.9 171.443C166.036 169.458 166.965 165.313 164.975 162.185Z" fill="#3B82F4"/>
<path d="M157.741 175.963C158.352 177.515 158.322 179.214 157.654 180.743C156.986 182.272 155.761 183.451 154.204 184.061L124.666 195.645L120.551 198.249L154.543 184.919C156.329 184.219 157.735 182.866 158.501 181.111C159.268 179.355 159.303 177.407 158.601 175.625L158.14 174.457L157.346 174.96L157.741 175.963Z" fill="#444444"/>
<path d="M60.8828 220.658C59.3255 221.268 57.6241 221.237 56.0911 220.572C54.558 219.905 53.3764 218.683 52.7647 217.13L32.4455 165.569L29.834 161.464L51.904 217.468C52.6059 219.25 53.962 220.653 55.7223 221.417C56.6429 221.817 57.6155 222.018 58.5906 222.018C59.4791 222.018 60.3692 221.851 61.2212 221.517L66.6715 219.379L66.1674 218.586L60.8828 220.658Z" fill="#444444"/>
<path d="M6.39264 99.4602C5.78098 97.9075 5.81135 96.2094 6.4794 94.6801C7.14745 93.1507 8.37251 91.9719 9.92898 91.3618L56.7699 72.9926L60.885 70.3875L9.59149 90.5023C7.8051 91.2025 6.39871 92.5553 5.63262 94.3114C4.86566 96.0666 4.83096 98.0148 5.53285 99.7969L7.30796 104.3L8.10268 103.797L6.39351 99.4593L6.39264 99.4602Z" fill="#444444"/>
<path d="M103.25 54.7632C103.992 54.4724 104.768 54.327 105.542 54.327C106.391 54.327 107.239 54.5018 108.041 54.8497C109.575 55.5162 110.756 56.7382 111.368 58.2909L131.687 109.852L134.299 113.957L112.228 57.9534C111.527 56.1713 110.171 54.7684 108.411 54.0041C106.652 53.2399 104.699 53.2044 102.912 53.9046L97.4619 56.0424L97.966 56.8352L103.251 54.7632H103.25Z" fill="#444444"/>
<path d="M131.687 109.852L157.345 174.959L158.14 174.456L134.299 113.957L131.687 109.852Z" fill="#444444"/>
<path d="M97.966 56.8361L97.461 56.0425L60.8855 70.3863L56.7705 72.9914L97.966 56.8361Z" fill="#444444"/>
<path d="M66.1665 218.585L66.6714 219.379L120.549 198.249L124.665 195.644L66.1665 218.585Z" fill="#3B82F4"/>
<path d="M8.10185 103.797L7.30713 104.301L29.8335 161.464L32.445 165.569L8.10185 103.797Z" fill="#444444"/>
<path d="M105.398 125.017L60.6354 153.355C59.2344 154.242 58.8194 156.094 59.7085 157.491L59.709 157.492C60.5981 158.89 62.4546 159.304 63.8557 158.417L108.618 130.079C110.019 129.192 110.434 127.34 109.545 125.942L109.545 125.941C108.656 124.544 106.799 124.13 105.398 125.017Z" fill="#B3CEF6"/>
<path d="M126.946 126.758L53.0402 173.546C51.6392 174.433 51.2242 176.285 52.1133 177.683L52.1138 177.683C53.0029 179.081 54.8594 179.495 56.2605 178.608L130.166 131.82C131.567 130.933 131.982 129.081 131.093 127.683L131.093 127.683C130.204 126.285 128.347 125.871 126.946 126.758Z" fill="#B3CEF6"/>
<path d="M133.923 137.725L60.0168 184.513C58.6157 185.4 58.2008 187.252 59.0899 188.65L59.0903 188.65C59.9795 190.048 61.836 190.462 63.237 189.575L137.143 142.787C138.544 141.9 138.959 140.048 138.07 138.65L138.069 138.649C137.18 137.252 135.324 136.838 133.923 137.725Z" fill="#B3CEF6"/>
<path d="M140.899 148.691L66.9933 195.479C65.5923 196.366 65.1773 198.218 66.0664 199.616L66.0669 199.616C66.956 201.014 68.8126 201.428 70.2136 200.541L144.12 153.753C145.521 152.866 145.936 151.014 145.046 149.616L145.046 149.616C144.157 148.218 142.3 147.804 140.899 148.691Z" fill="#B3CEF6"/>
<path d="M147.875 159.657L73.9694 206.446C72.5684 207.332 72.1534 209.185 73.0425 210.582L73.043 210.583C73.9321 211.98 75.7886 212.394 77.1897 211.508L151.096 164.719C152.497 163.832 152.912 161.98 152.023 160.583L152.022 160.582C151.133 159.184 149.276 158.77 147.875 159.657Z" fill="#B3CEF6"/>
<path d="M71.2115 120.645C69.4937 121.732 67.5086 121.866 66.7625 120.895L51.6662 101.248C49.7002 98.6893 50.4672 94.8171 53.5445 92.8688C56.6219 90.9215 60.4602 91.8787 61.9438 94.7426L73.3337 116.737C73.8967 117.824 72.9294 119.558 71.2115 120.645Z" fill="#B3CEF6"/>
<path d="M75.8671 127.948C77.8742 126.678 78.7112 124.406 77.7366 122.874C76.762 121.342 74.3448 121.13 72.3377 122.4C70.3307 123.671 69.4937 125.943 70.4683 127.475C71.4429 129.007 73.8601 129.219 75.8671 127.948Z" fill="#B3CEF6"/>
<g style="mix-blend-mode:multiply" opacity="0.2">
<path d="M168.085 203.612C179.505 192.219 179.505 173.748 168.085 162.355C156.664 150.962 138.148 150.962 126.727 162.355C115.307 173.748 115.307 192.219 126.727 203.612C138.148 215.005 156.664 215.005 168.085 203.612Z" fill="#3A7EC1"/>
</g>
<path d="M143.067 210.427C159.218 210.427 172.311 197.366 172.311 181.254C172.311 165.142 159.218 152.081 143.067 152.081C126.915 152.081 113.822 165.142 113.822 181.254C113.822 197.366 126.915 210.427 143.067 210.427Z" fill="#F9C067"/>
<path d="M143.567 191.071C143.332 190.969 143.062 190.989 142.844 191.125L134.26 196.47C133.711 196.811 133.01 196.378 133.073 195.737L134.042 185.687C134.066 185.432 133.964 185.182 133.767 185.018L126.018 178.523C125.525 178.11 125.721 177.312 126.35 177.172L136.23 174.985C136.481 174.931 136.688 174.755 136.784 174.52L140.581 165.158C140.823 164.563 141.646 164.502 141.974 165.057L147.111 173.756C147.241 173.975 147.472 174.118 147.727 174.136L157.823 174.847C158.467 174.892 158.778 175.653 158.351 176.135L156.058 178.721L151.769 183.559L151.646 183.698C151.476 183.89 151.41 184.152 151.473 184.401L153.916 194.198C154.071 194.821 153.442 195.354 152.85 195.098L143.569 191.071H143.567Z" fill="white"/>
<path d="M157.906 185.396C154.083 185.396 150.893 182.378 150.73 178.531L145.361 52.2085C145.279 50.2957 145.95 48.4652 147.249 47.0553C148.547 45.6454 150.318 44.8241 152.236 44.7427L252.419 40.5053C256.38 40.3382 259.736 43.4142 259.903 47.3634L265.273 173.686C265.441 177.636 262.357 180.985 258.398 181.152L158.215 185.389C158.112 185.394 158.009 185.396 157.907 185.396H157.906ZM252.727 41.4201C252.638 41.4201 252.548 41.4218 252.459 41.4262L152.276 45.6636C150.605 45.7346 149.062 46.4495 147.93 47.6785C146.799 48.9075 146.215 50.5017 146.286 52.1686L151.655 178.492C151.802 181.933 154.726 184.614 158.177 184.468L258.36 180.23C261.809 180.084 264.496 177.166 264.35 173.724L258.981 47.4015C258.839 44.0503 256.06 41.4201 252.728 41.4201H252.727Z" fill="#444444"/>
<g style="mix-blend-mode:multiply" opacity="0.2">
<path d="M266.575 55.9932L168.196 36.6434C164.553 35.9267 161.017 38.2921 160.298 41.9263L135.781 165.975C135.062 169.609 137.433 173.137 141.076 173.853L239.456 193.203C243.099 193.92 246.635 191.554 247.353 187.92L271.871 63.8717C272.589 60.2375 270.218 56.7098 266.575 55.9932Z" fill="#3A7EC1"/>
</g>
<path d="M264.97 51.8229L166.59 32.4795C162.946 31.7631 159.411 34.1288 158.692 37.7633L134.183 161.814C133.465 165.448 135.836 168.976 139.479 169.692L237.86 189.035C241.503 189.752 245.039 187.386 245.757 183.752L270.267 59.701C270.985 56.0664 268.613 52.5393 264.97 51.8229Z" fill="white"/>
<path d="M242.647 131.943L156.767 115.058C155.139 114.738 153.559 115.795 153.238 117.419L153.238 117.42C152.917 119.044 153.976 120.62 155.604 120.94L241.485 137.825C243.113 138.145 244.692 137.088 245.013 135.464L245.013 135.464C245.334 133.839 244.275 132.263 242.647 131.943Z" fill="#E4ECF9"/>
<path d="M240.128 144.687L154.248 127.802C152.62 127.481 151.04 128.538 150.719 130.163L150.719 130.163C150.398 131.787 151.458 133.364 153.086 133.684L238.966 150.569C240.594 150.889 242.174 149.832 242.495 148.208L242.495 148.207C242.816 146.583 241.756 145.007 240.128 144.687Z" fill="#E4ECF9"/>
<path d="M237.611 157.433L151.731 140.547C150.102 140.227 148.523 141.284 148.202 142.908L148.202 142.909C147.881 144.533 148.94 146.109 150.568 146.429L236.448 163.315C238.076 163.635 239.656 162.578 239.977 160.954L239.977 160.953C240.298 159.329 239.239 157.753 237.611 157.433Z" fill="#E4ECF9"/>
<path d="M235.093 170.176L149.212 153.29C147.584 152.97 146.005 154.027 145.684 155.651L145.683 155.652C145.363 157.276 146.422 158.852 148.05 159.172L233.93 176.058C235.558 176.378 237.138 175.321 237.459 173.697L237.459 173.696C237.78 172.072 236.721 170.496 235.093 170.176Z" fill="#E4ECF9"/>
<g style="mix-blend-mode:multiply" opacity="0.2">
<path d="M210.896 142.3L178.544 20.0507C177.597 16.4684 173.918 14.3315 170.327 15.2775L73.3755 40.8095C69.7854 41.7555 67.6424 45.4251 68.5907 49.0066L100.942 171.256C101.889 174.837 105.569 176.975 109.159 176.029L206.111 150.497C209.701 149.552 211.844 145.881 210.896 142.3Z" fill="#3A7EC1"/>
</g>
<path d="M166.236 13.2482L69.2848 38.7833C65.6943 39.729 63.5522 43.3992 64.5002 46.9809L96.8553 169.229C97.8033 172.811 101.482 174.948 105.073 174.002L202.024 148.467C205.614 147.521 207.756 143.851 206.808 140.269L174.453 18.0212C173.505 14.4395 169.826 12.3025 166.236 13.2482Z" fill="white"/>
<path d="M127.236 80.182C125.966 80.5784 124.543 80.4919 123.27 79.8272L109.363 72.5674C106.818 71.238 105.834 68.1024 107.166 65.5621C108.498 63.0237 111.642 62.0422 114.188 63.3698L123.485 68.2244L135.932 44.4987C137.264 41.9602 140.408 40.9787 142.954 42.3064C145.5 43.6358 146.484 46.7714 145.152 49.3117L130.293 77.6349C129.627 78.9046 128.508 79.7848 127.237 80.1812L127.236 80.182Z" fill="#52D1BD"/>
<path d="M161.285 86.8743L110.026 100.375C108.421 100.798 107.464 102.438 107.888 104.038L107.888 104.039C108.311 105.639 109.955 106.594 111.56 106.172L162.819 92.6709C164.423 92.2483 165.38 90.6083 164.957 89.0079L164.957 89.007C164.533 87.4066 162.889 86.4517 161.285 86.8743Z" fill="#E4ECF9"/>
<path d="M181.295 95.0387L96.6633 117.329C95.0589 117.752 94.1017 119.392 94.5253 120.992L94.5255 120.993C94.9491 122.594 96.5931 123.549 98.1974 123.126L182.83 100.835C184.434 100.413 185.391 98.7728 184.968 97.1723L184.967 97.1715C184.544 95.571 182.9 94.6162 181.295 95.0387Z" fill="#E4ECF9"/>
<path d="M184.618 107.596L99.986 129.887C98.3816 130.31 97.4244 131.95 97.848 133.55L97.8483 133.551C98.2718 135.151 99.9158 136.106 101.52 135.684L186.152 113.393C187.757 112.97 188.714 111.33 188.29 109.73L188.29 109.729C187.867 108.129 186.223 107.174 184.618 107.596Z" fill="#E4ECF9"/>
<path d="M187.942 120.156L103.31 142.447C101.706 142.869 100.749 144.509 101.172 146.11L101.172 146.11C101.596 147.711 103.24 148.666 104.844 148.243L189.477 125.953C191.081 125.53 192.038 123.89 191.615 122.29L191.614 122.289C191.191 120.688 189.547 119.733 187.942 120.156Z" fill="#E4ECF9"/>
<path d="M191.267 132.714L106.634 155.005C105.03 155.428 104.073 157.068 104.496 158.668L104.497 158.669C104.92 160.269 106.564 161.224 108.169 160.802L192.801 138.511C194.405 138.089 195.362 136.449 194.939 134.848L194.939 134.847C194.515 133.247 192.871 132.292 191.267 132.714Z" fill="#E4ECF9"/>
<path d="M17.8144 176.253C20.5802 176.253 22.8222 174.016 22.8222 171.257C22.8222 168.498 20.5802 166.261 17.8144 166.261C15.0487 166.261 12.8066 168.498 12.8066 171.257C12.8066 174.016 15.0487 176.253 17.8144 176.253Z" fill="#4786D1"/>
</g>
<defs>
<clipPath id="clip0_64_273">
<rect width="272" height="240" fill="white"/>
</clipPath>
</defs>
</svg>
