<svg width="203" height="240" viewBox="0 0 203 240" fill="none" xmlns="http://www.w3.org/2000/svg">
<g opacity="0.4" clip-path="url(#clip0_64_335)">
<path d="M223.483 107.787C223.483 165.454 178.201 212.541 121.246 215.435H121.241C119.406 215.527 117.554 215.574 115.696 215.574C113.456 215.574 111.234 215.504 109.029 215.371C98.848 214.752 89.0501 212.715 79.8247 209.462C74.1878 207.471 68.7644 205.03 63.6019 202.17C60.7432 200.59 57.9649 198.883 55.2736 197.054C53.6764 195.971 52.1079 194.843 50.5745 193.68C24.6462 174.003 7.90918 142.848 7.90918 107.787C7.90918 79.4744 18.8298 53.708 36.6906 34.4766C39.5955 31.334 42.6919 28.3708 45.9622 25.5981C64.7598 9.63048 89.1019 0 115.696 0C175.227 0 223.483 48.2569 223.483 107.787Z" fill="#ECF3FE"/>
<g style="mix-blend-mode:multiply" opacity="0.2">
<path d="M166.399 195.184L74.8509 239.584C70.6752 240.985 66.1536 238.735 64.7534 234.559L20.9764 106.719C19.5753 102.544 21.8254 98.0222 26.0011 96.622L114.828 73.336C119.003 71.9349 123.525 74.1851 124.925 78.3608" fill="#3A7EC1"/>
</g>
<path d="M112.439 61.8637L25.2744 96.2161C21.1762 97.8313 19.1633 102.463 20.7785 106.561L67.7014 225.621C69.3166 229.719 73.9481 231.732 78.0463 230.117L165.211 195.764C169.309 194.149 171.322 189.518 169.706 185.419L122.784 66.3596C121.168 62.2614 116.537 60.2485 112.439 61.8637Z" fill="white"/>
<path d="M92.1918 61.4355L75.9153 67.8494C73.3045 63.251 67.6509 61.1461 62.5882 63.141C57.5256 65.1359 54.8278 70.5315 56.056 75.6746L39.7795 82.0884C38.358 82.6489 37.6588 84.2553 38.2193 85.6778L42.9619 97.7129C43.5224 99.1344 45.1289 99.8335 46.5513 99.2731L98.9636 78.6193C100.385 78.0588 101.084 76.4524 100.524 75.0299L95.7811 62.9948C95.2207 61.5733 93.6142 60.8742 92.1918 61.4346V61.4355Z" fill="#3B82F4"/>
<path d="M52.1616 124.988L42.7475 128.698C41.5952 129.152 40.2883 128.584 39.8342 127.432L36.1247 118.017C35.6706 116.865 36.2393 115.557 37.3908 115.103L46.8048 111.394C47.9572 110.94 49.264 111.508 49.7181 112.661L53.4277 122.075C53.8818 123.227 53.314 124.534 52.1616 124.988ZM38.0826 116.86C37.8976 116.933 37.807 117.141 37.88 117.326L41.5896 126.74C41.6617 126.924 41.8708 127.014 42.0557 126.941L51.4698 123.232C51.6538 123.16 51.7445 122.951 51.6723 122.767L47.9628 113.353C47.8897 113.168 47.6816 113.077 47.4976 113.15L38.0835 116.86H38.0826Z" fill="#EBF5FE"/>
<path d="M114.385 85.6907L59.1977 107.441C58.1646 107.848 57.6572 109.015 58.0644 110.048C58.4715 111.081 59.6391 111.589 60.6722 111.182L115.859 89.4319C116.892 89.0247 117.4 87.8572 116.992 86.8241C116.585 85.791 115.418 85.2835 114.385 85.6907Z" fill="#EBF5FE"/>
<path d="M105.706 98.6277L62.4443 115.678C61.4112 116.085 60.9038 117.253 61.311 118.286C61.7181 119.319 62.8857 119.826 63.9188 119.419L107.181 102.369C108.214 101.962 108.721 100.794 108.314 99.7611C107.907 98.728 106.739 98.2206 105.706 98.6277Z" fill="#EBF5FE"/>
<path d="M63.0395 152.593L53.6255 156.302C52.4731 156.756 51.1663 156.188 50.7122 155.036L47.0026 145.622C46.5485 144.47 47.1173 143.162 48.2687 142.708L57.6828 138.998C58.8351 138.544 60.142 139.113 60.5961 140.265L64.3056 149.679C64.7597 150.832 64.1919 152.138 63.0395 152.593ZM48.9605 144.464C48.7755 144.537 48.6849 144.745 48.758 144.93L52.4675 154.344C52.5397 154.528 52.7487 154.619 52.9337 154.546L62.3477 150.836C62.5318 150.764 62.6224 150.555 62.5503 150.371L58.8407 140.957C58.7676 140.772 58.5595 140.681 58.3755 140.754L48.9614 144.464H48.9605Z" fill="#EBF5FE"/>
<path d="M125.265 113.295L70.0781 135.045C69.045 135.452 68.5376 136.62 68.9447 137.653C69.3519 138.686 70.5195 139.193 71.5526 138.786L126.739 117.036C127.773 116.629 128.28 115.462 127.873 114.429C127.466 113.395 126.298 112.888 125.265 113.295Z" fill="#EBF5FE"/>
<path d="M116.585 126.231L73.3232 143.281C72.2901 143.688 71.7827 144.856 72.1899 145.889C72.597 146.922 73.7646 147.43 74.7977 147.023L118.06 129.972C119.093 129.565 119.6 128.398 119.193 127.365C118.786 126.332 117.618 125.824 116.585 126.231Z" fill="#EBF5FE"/>
<path d="M73.9189 180.199L64.5048 183.909C63.3525 184.363 62.0457 183.795 61.5916 182.642L57.882 173.228C57.4279 172.076 57.9967 170.768 59.1481 170.314L68.5622 166.605C69.7145 166.151 71.0214 166.719 71.4755 167.872L75.185 177.286C75.6391 178.438 75.0713 179.745 73.9189 180.199ZM59.8399 172.07C59.6549 172.144 59.5643 172.352 59.6374 172.537L63.3469 181.951C63.4191 182.135 63.6281 182.225 63.8131 182.152L73.2271 178.443C73.4112 178.371 73.5018 178.162 73.4297 177.978L69.7201 168.563C69.647 168.378 69.4389 168.288 69.2549 168.361L59.8408 172.07H59.8399Z" fill="#EBF5FE"/>
<path d="M136.144 140.9L80.957 162.649C79.9239 163.057 79.4165 164.224 79.8236 165.257C80.2308 166.29 81.3984 166.798 82.4315 166.391L137.618 144.641C138.651 144.234 139.159 143.066 138.752 142.033C138.345 141 137.177 140.493 136.144 140.9Z" fill="#EBF5FE"/>
<path d="M127.465 153.836L84.2031 170.886C83.17 171.293 82.6626 172.461 83.0697 173.494C83.4769 174.527 84.6445 175.034 85.6776 174.627L128.94 157.577C129.973 157.17 130.48 156.002 130.073 154.969C129.666 153.936 128.498 153.429 127.465 153.836Z" fill="#EBF5FE"/>
<path d="M84.7968 207.804L75.3828 211.513C74.2304 211.967 72.9236 211.399 72.4695 210.247L68.7599 200.833C68.3058 199.681 68.8746 198.373 70.026 197.919L79.4401 194.209C80.5925 193.755 81.8993 194.324 82.3534 195.476L86.063 204.89C86.5171 206.043 85.9492 207.349 84.7968 207.804ZM70.7178 199.675C70.5329 199.748 70.4422 199.956 70.5153 200.141L74.2249 209.555C74.297 209.739 74.506 209.83 74.691 209.757L84.1051 206.047C84.2891 205.975 84.3797 205.766 84.3076 205.582L80.598 196.168C80.525 195.983 80.3169 195.892 80.1328 195.965L70.7188 199.675H70.7178Z" fill="#EBF5FE"/>
<path d="M147.022 168.504L91.8349 190.254C90.8018 190.661 90.2944 191.829 90.7016 192.862C91.1087 193.895 92.2763 194.402 93.3094 193.995L148.496 172.245C149.529 171.838 150.037 170.671 149.63 169.638C149.222 168.604 148.055 168.097 147.022 168.504Z" fill="#EBF5FE"/>
<path d="M138.344 181.441L95.0815 198.491C94.0484 198.898 93.541 200.066 93.9482 201.099C94.3553 202.132 95.5229 202.64 96.556 202.232L139.818 185.182C140.851 184.775 141.359 183.608 140.951 182.575C140.544 181.541 139.377 181.034 138.344 181.441Z" fill="#EBF5FE"/>
<path d="M57.521 150.307L51.5483 147.591L52.5925 145.297L56.2706 146.969L61.3102 135.887L63.6038 136.93L57.521 150.307Z" fill="#52D1BD"/>
<path d="M79.44 205.929L73.4673 203.213L74.5105 200.919L78.1887 202.591L83.2291 191.509L85.5227 192.552L79.44 205.929Z" fill="#52D1BD"/>
<g style="mix-blend-mode:multiply" opacity="0.2">
<path d="M240.7 55.3348L231.54 16.664C230.754 13.3465 227.427 11.2943 224.11 12.0795L105.468 40.183C102.151 40.9691 100.098 44.2958 100.884 47.6132L110.043 86.2841C110.83 89.6015 114.156 91.6538 117.474 90.8686L236.115 62.766C239.432 61.9799 241.484 58.6532 240.699 55.3357L240.7 55.3348Z" fill="#3A7EC1"/>
</g>
<path d="M228.165 7.69923L108.361 30.3365C105.011 30.9695 102.808 34.1985 103.441 37.5487L110.82 76.5986C111.453 79.9488 114.682 82.1515 118.032 81.5185L237.836 58.8812C241.186 58.2482 243.389 55.0192 242.756 51.669L235.377 12.6191C234.744 9.2689 231.515 7.0662 228.165 7.69923Z" fill="#F9C067"/>
<path d="M136.856 65.2884L124.745 57.0276L127.918 52.3747L135.378 57.4623L150.706 34.9866L155.359 38.1597L136.856 65.2884Z" fill="white"/>
<path d="M169.312 59.1527L157.2 50.892L160.373 46.239L167.832 51.3266L183.161 28.8518L187.813 32.025L169.312 59.1527Z" fill="white"/>
<path d="M201.767 53.0172L189.654 44.7565L192.828 40.1035L200.287 45.1911L215.615 22.7163L220.268 25.8895L201.767 53.0172Z" fill="white"/>
<path d="M186.893 138.756C199.172 138.756 209.126 128.802 209.126 116.524C209.126 104.245 199.172 94.291 186.893 94.291C174.614 94.291 164.661 104.245 164.661 116.524C164.661 128.802 174.614 138.756 186.893 138.756Z" fill="#3B82F4"/>
<path d="M178.259 112.974C179.867 112.974 181.171 111.67 181.171 110.062C181.171 108.453 179.867 107.149 178.259 107.149C176.65 107.149 175.346 108.453 175.346 110.062C175.346 111.67 176.65 112.974 178.259 112.974Z" fill="white"/>
<path d="M197.156 116.125C198.765 116.125 200.069 114.821 200.069 113.212C200.069 111.604 198.765 110.3 197.156 110.3C195.548 110.3 194.244 111.604 194.244 113.212C194.244 114.821 195.548 116.125 197.156 116.125Z" fill="white"/>
<path d="M175.161 120.245C175.984 124.974 179.703 128.916 184.688 129.747C189.674 130.578 194.471 128.057 196.784 123.851L175.162 120.246L175.161 120.245Z" fill="white"/>
<path d="M63.6037 44.0026C66.9923 44.0026 69.7392 41.2557 69.7392 37.8672C69.7392 34.4786 66.9923 31.7317 63.6037 31.7317C60.2152 31.7317 57.4683 34.4786 57.4683 37.8672C57.4683 41.2557 60.2152 44.0026 63.6037 44.0026Z" fill="#3B82F4"/>
<path d="M209.128 200.227C212.538 200.227 215.302 197.463 215.302 194.053C215.302 190.644 212.538 187.88 209.128 187.88C205.719 187.88 202.955 190.644 202.955 194.053C202.955 197.463 205.719 200.227 209.128 200.227Z" fill="#F9C067"/>
<path d="M4.52623 167.567C7.02599 167.567 9.05245 165.541 9.05245 163.041C9.05245 160.541 7.02599 158.515 4.52623 158.515C2.02646 158.515 0 160.541 0 163.041C0 165.541 2.02646 167.567 4.52623 167.567Z" fill="#3B82F4"/>
</g>
<defs>
<clipPath id="clip0_64_335">
<rect width="242.866" height="240" fill="white"/>
</clipPath>
</defs>
</svg>
