<svg width="102" height="90" viewBox="0 0 102 90" fill="none" xmlns="http://www.w3.org/2000/svg">
<path opacity="0.5" d="M34.416 29.382L6.03164 78.7518C3.95278 78.5528 1.85133 79.5582 0.738895 81.4922C-0.782008 84.1366 0.120111 87.5194 2.75518 89.0467C5.38852 90.574 8.7571 89.6681 10.278 87.0219C11.1193 85.5592 11.2184 83.8696 10.6934 82.3946L44.5513 23.5032L47.9304 29.3803L15.7463 85.355L22.5026 85.355L44.5513 47.0063L47.9303 52.8834L40.1277 66.453C38.2452 66.4722 36.4202 67.4619 35.4085 69.2178C33.8876 71.8623 34.7897 75.245 37.4248 76.7724C40.0582 78.2997 43.4267 77.3938 44.9476 74.7476C45.9036 73.0841 45.9019 71.1309 45.1145 69.5303L51.3076 58.7588L66.5984 85.355H73.3546L47.9286 41.131L51.3076 35.2539L70.7213 69.0171C69.2786 71.6476 70.1912 74.9658 72.7915 76.4739C75.4248 78.0012 78.7934 77.0953 80.3143 74.4491C81.8352 71.8047 80.9331 68.4219 78.298 66.8946C77.5193 66.4425 76.6746 66.2034 75.835 66.1597L47.9286 17.6243L51.3076 11.749L91.6246 81.8797C90.7694 83.5065 90.7399 85.5243 91.7219 87.2349C93.2428 89.8793 96.6114 90.7852 99.2465 89.2579C101.88 87.7306 102.782 84.3478 101.261 81.7034C100.277 79.9928 98.5217 79.0101 96.6914 78.942L51.3042 0L34.4091 29.382H34.416Z" fill="#FF9900"/>
</svg>
