<svg width="68" height="76" viewBox="0 0 68 76" fill="none" xmlns="http://www.w3.org/2000/svg">
<g id="Vector">
<path d="M22.944 19.3189L4.02109 51.7798C2.63519 51.6489 1.23422 52.31 0.492597 53.5816C-0.521339 55.3204 0.0800739 57.5446 1.83679 58.5488C3.59235 59.553 5.83807 58.9573 6.852 57.2175C7.41285 56.2557 7.4789 55.1448 7.12895 54.175L29.7009 15.4535L31.9536 19.3177L10.4975 56.1214L15.0017 56.1214L29.7009 30.907L31.9536 34.7712L26.7518 43.6932C25.4968 43.7059 24.2801 44.3566 23.6057 45.5112C22.5918 47.2499 23.1932 49.4741 24.9499 50.4783C26.7054 51.4825 28.9512 50.8869 29.9651 49.147C30.6024 48.0533 30.6013 46.769 30.0763 45.7166L34.2051 38.6343L44.3989 56.1214H48.9031L31.9524 27.0439L34.2051 23.1796L47.1475 45.3792C46.1857 47.1087 46.7941 49.2905 48.5276 50.2821C50.2832 51.2863 52.5289 50.6906 53.5429 48.9508C54.5568 47.212 53.9554 44.9878 52.1987 43.9836C51.6795 43.6864 51.1164 43.5291 50.5567 43.5004L31.9524 11.5881L34.2051 7.72502L61.0831 53.8364C60.5129 54.9061 60.4932 56.2328 61.148 57.3575C62.1619 59.0962 64.4076 59.6919 66.1643 58.6876C67.9199 57.6834 68.5213 55.4592 67.5074 53.7205C66.8515 52.5958 65.6811 51.9496 64.4609 51.9049L34.2028 0L22.9394 19.3189H22.944Z" fill="white"/>
<path d="M9.93395 75.7434L8.92562 72.9207H4.31343L3.28642 75.7434H6.10798e-06L5.11636 62.9131H8.1787L13.2951 75.7434H9.93395ZM5.15371 70.5929H8.08534L6.62886 66.5056L5.15371 70.5929Z" fill="white"/>
<path d="M15.0903 62.9131H19.7585C21.8872 62.9131 23.5802 63.4752 24.8375 64.5994C26.0948 65.7113 26.7234 67.2876 26.7234 69.3282C26.7234 71.3689 26.0948 72.9513 24.8375 74.0755C23.5802 75.1874 21.8872 75.7434 19.7585 75.7434H15.0903V62.9131ZM18.1526 73.0857H19.4597C20.7793 73.0857 21.7876 72.768 22.4847 72.1326C23.1943 71.4972 23.5491 70.5624 23.5491 69.3282C23.5491 68.0941 23.1943 67.1593 22.4847 66.5239C21.7876 65.8885 20.7793 65.5708 19.4597 65.5708H18.1526V73.0857Z" fill="white"/>
<path d="M37.1226 75.7434L36.1143 72.9207H31.5021L30.4751 75.7434H27.1887L32.305 62.9131H35.3674L40.4837 75.7434H37.1226ZM32.3424 70.5929H35.274L33.8175 66.5056L32.3424 70.5929Z" fill="white"/>
<path d="M53.576 62.9131H56.0408V75.7434H53.0345V68.2652L49.7107 72.6824H48.6464L45.3039 68.2835V75.7434H42.2789V62.9131H44.7437L49.1879 68.9067L53.576 62.9131Z" fill="white"/>
<path d="M58.2528 75.0469V71.9126H58.5329C59.7155 72.8902 61.0662 73.379 62.5849 73.379C63.282 73.379 63.8297 73.2751 64.2281 73.0674C64.6264 72.8596 64.8256 72.5664 64.8256 72.1876C64.8256 71.6744 64.5082 71.3017 63.8733 71.0695L61.2404 70.0797C60.3317 69.7498 59.6284 69.261 59.1304 68.6134C58.6325 67.9658 58.3835 67.2021 58.3835 66.3223C58.3835 65.0026 58.8752 64.0617 59.8587 63.4996C60.8421 62.9375 62.0122 62.6565 63.3691 62.6565C64.6015 62.6565 65.8402 62.9192 67.085 63.4446V66.3956H66.861C65.8153 65.6502 64.6513 65.2775 63.3691 65.2775C62.1616 65.2775 61.5579 65.6075 61.5579 66.2673C61.5579 66.8049 61.9936 67.2265 62.865 67.532L65.4792 68.5034C66.2883 68.7967 66.9108 69.261 67.3465 69.8964C67.7822 70.5318 68 71.2711 68 72.1143C68 72.7985 67.8506 73.3973 67.5519 73.9105C67.2531 74.4237 66.8423 74.8269 66.3195 75.1202C65.8091 75.4135 65.2364 75.6334 64.6015 75.7801C63.9791 75.9267 63.3131 76 62.6036 76C60.9355 76 59.4852 75.6823 58.2528 75.0469Z" fill="white"/>
</g>
</svg>
