<svg width="16" height="16" viewBox="0 0 16 16" fill="none" xmlns="http://www.w3.org/2000/svg">
<path d="M13.1931 5.00023C12.985 5.00529 12.7872 5.09506 12.643 5.24993L7.99829 10.0385L3.35355 5.24993C3.28008 5.17193 3.19218 5.10992 3.09505 5.06757C2.99792 5.02523 2.89353 5.00341 2.78807 5.0034C2.63121 5.00344 2.47793 5.05173 2.34784 5.14208C2.21775 5.23244 2.11676 5.36076 2.0578 5.51062C1.99884 5.66048 1.98459 5.82506 2.01687 5.98332C2.04915 6.14157 2.1265 6.2863 2.23901 6.39899L7.44102 11.7621C7.58884 11.9144 7.78929 12 7.99829 12C8.20729 12 8.40774 11.9144 8.55556 11.7621L13.7576 6.39899C13.8722 6.28557 13.9509 6.1391 13.9834 5.97877C14.0158 5.81844 14.0005 5.65173 13.9395 5.50051C13.8785 5.34929 13.7746 5.2206 13.6414 5.13133C13.5082 5.04206 13.3519 4.99636 13.1931 5.00023Z" fill="white"/>
</svg>
