<svg width="50" height="50" viewBox="0 0 50 50" fill="none" xmlns="http://www.w3.org/2000/svg">
<path d="M44.5276 34.75C43.4494 37.1445 42.9299 38.2148 41.5432 40.3281C39.6018 43.2812 36.8635 46.9688 33.4807 46.9922C30.469 47.0195 29.6916 45.0273 25.6018 45.0625C21.5159 45.082 20.6643 47.0312 17.6487 47C14.2619 46.9688 11.6721 43.6484 9.73069 40.6992C4.30101 32.4297 3.72679 22.7344 7.08226 17.5781C9.45726 13.9219 13.2112 11.7734 16.7385 11.7734C20.3323 11.7734 22.5901 13.7461 25.5588 13.7461C28.4416 13.7461 30.1955 11.7695 34.3518 11.7695C37.4924 11.7695 40.8127 13.4805 43.1877 16.4336C35.4221 20.6914 36.6838 31.7812 44.5276 34.75ZM31.1955 8.46875C32.7073 6.52734 33.8557 3.78906 33.4377 1C30.9729 1.16797 28.0901 2.74219 26.4065 4.78125C24.8791 6.64062 23.6135 9.39844 24.1057 12.0664C26.7971 12.1523 29.5823 10.5469 31.1955 8.46875Z" fill="#6B6B6B"/>
</svg>
