<svg width="50" height="50" viewBox="0 0 50 50" fill="none" xmlns="http://www.w3.org/2000/svg">
<path d="M21.9265 4.90395C23.4065 4.11922 24.8322 3.92648 25.9456 4.02285C27.059 4.11922 27.8466 4.53223 28.3354 4.79381C28.7563 5.02785 29.6524 5.44087 30.2906 6.2256C30.9288 6.99657 31.4855 8.18055 31.8114 9.63988C32.4767 12.5723 31.5941 11.5673 32.3545 14.9265C33.1013 18.2857 34.6356 19.8689 36.4822 22.526C38.3288 25.1831 40.2433 29.5748 39.6323 32.108C39.5644 32.4109 39.4558 32.8101 39.3065 33.2094C39.2386 33.1956 39.062 33.2094 38.9806 33.2094C38.8041 33.2094 38.7362 33.1956 38.6547 33.2094C38.5461 33.2232 38.4103 33.2645 38.3288 33.3195C38.2881 33.0304 37.8264 32.7 37.4598 32.5486C37.0796 32.3971 36.6995 32.3283 36.6995 32.3283C36.6995 32.3283 36.2378 32.3558 35.8305 32.3283C35.7083 32.3283 35.4639 32.3145 35.2873 32.3283C35.3281 32.2594 35.4639 32.2044 35.5046 32.108C35.749 31.5573 36.265 29.6574 36.0477 28.143C35.8932 27.1377 35.4456 26.3677 34.8439 25.5276C35.6633 26.6975 36.1088 28.2466 35.9391 29.4647C35.8169 30.332 35.7762 30.6487 35.6132 31.2269C35.4774 31.6675 35.2602 32.1355 35.1787 32.3283C34.8936 32.3696 34.5813 32.4384 34.4183 32.5486C34.1332 32.7275 33.9295 33.0166 34.0925 32.9891C34.2554 32.9478 34.4048 32.6587 34.7442 32.5486C35.0972 32.4384 35.7218 32.4247 35.9391 32.4384C36.1699 32.4522 36.7402 32.521 37.134 32.6587C37.5277 32.7964 37.8264 32.9478 38.003 33.2094C38.0573 33.292 38.1659 33.3884 38.2202 33.4297C38.0708 33.5811 37.8672 33.7738 37.6771 34.0905C37.582 34.2419 37.5141 34.4622 37.4598 34.531C37.3376 34.6825 36.8352 35.0817 36.4822 35.302C36.2514 35.4534 36.1156 35.5223 35.7218 35.5223C35.6268 35.5223 35.5996 35.536 35.5046 35.5223C35.0158 35.481 34.8121 35.3571 34.6356 35.1919L34.527 35.0817C34.3505 34.9165 34.2961 34.8752 34.3097 34.7513L34.4183 34.6412C34.4862 34.0905 34.4591 33.471 34.0925 33.0992C33.8888 32.8927 33.6851 32.8239 33.4407 32.7688C33.495 32.2181 33.5493 31.5986 33.5493 31.2269C33.5493 29.5198 33.3864 27.7713 33.0062 26.491C32.6532 25.2932 32.0829 24.4947 31.5941 23.4071C30.6301 21.2457 30.6165 20.2682 29.7475 18.8915C29.2723 18.1343 29.1501 17.4734 28.9871 17.0191C29.2587 16.6474 29.3809 16.1655 29.4216 15.4772C29.4623 14.8714 29.1365 14.5272 28.6612 14.2657C28.8242 14.0592 28.9056 13.7838 28.9871 13.4947C29.1772 12.7513 29.2044 11.9252 28.6612 10.9615C28.1453 10.0391 27.8873 9.91522 27.1405 9.86015C25.9999 9.76378 25.4432 10.6036 25.1853 11.1818C24.9137 11.8013 25.063 11.7187 25.0766 12.5035C25.0766 12.6136 25.063 12.6274 25.0766 12.7237C24.8186 12.6687 24.5335 12.7237 24.3163 12.7237C24.1941 12.7237 24.099 12.71 23.9904 12.7237C23.8953 12.7375 23.746 12.7237 23.6645 12.7237C23.5559 12.7375 23.4608 12.6962 23.3386 12.7237C23.3522 12.5861 23.3386 12.4759 23.3386 12.2832C23.3386 11.4572 23.0671 11.168 22.6869 10.6311C22.3203 10.1217 21.75 10.1217 21.3834 10.1906C21.1661 10.2319 20.9217 10.4521 20.7316 10.8514C20.6094 11.1267 20.528 11.4847 20.5144 11.8426C20.4872 12.8201 20.5144 13.1781 20.7316 13.8251C20.786 13.9903 20.8674 14.1418 20.9489 14.2657C20.9217 14.2794 20.976 14.362 20.9489 14.3758C20.4329 14.8026 19.9441 15.1192 19.9713 15.9177C19.9848 16.551 20.4058 17.0329 20.8403 17.4597C20.7588 18.0654 20.7316 18.2719 20.7316 19.1117C20.7316 19.7863 20.4193 19.8414 19.754 20.8739C19.5775 21.1631 19.3603 21.4522 19.2109 21.755C19.143 22.0166 19.143 22.1956 19.2109 22.4159C19.4146 23.1042 20.3515 23.297 20.2971 23.5173C20.2428 23.7375 19.5368 23.8614 18.9936 24.1781C18.7085 24.3433 18.4505 24.536 18.1247 24.8389C17.6494 25.9403 16.8347 27.2206 16.6039 28.2532C16.3323 29.4922 16.0065 30.2357 16.0608 31.8877C16.0744 32.342 16.0336 32.5761 16.0608 32.7688C15.8164 32.5073 15.6534 32.2732 15.5177 31.9979C15.2597 31.4747 15.1103 30.6074 15.1918 29.685C15.2868 28.6253 15.5039 28.0884 16.0601 26.7129L16.0608 26.7112C16.6718 25.2382 17.0384 24.8664 16.9298 24.7288C16.8347 24.6186 16.2509 25.7475 16.0608 26.1606C15.5448 27.2757 15.1239 28.3495 14.9745 29.685C14.8659 30.6624 15.0288 31.3095 15.3004 31.8877C15.3683 32.0392 15.4362 32.3145 15.6263 32.5486C14.9745 31.9841 14.6215 31.8877 14.4314 31.8877C13.7525 31.8602 13.2773 32.1218 12.9107 32.4384C12.6527 31.1305 12.802 30.7175 13.5624 28.8039C14.2821 26.9728 15.1646 24.894 16.4953 22.8564C18.1111 20.3921 19.8898 19.0429 19.754 17.1293C19.2516 10.0254 18.8036 6.54225 21.9265 4.90395Z" fill="#6B6B6B"/>
<path d="M21.0575 11.8426C21.2069 11.6086 21.4513 11.5122 21.7093 11.5122C21.9537 11.5122 22.2117 11.6224 22.361 11.8426C22.5104 12.0629 22.6869 12.4759 22.6869 12.8339C22.6869 13.0955 22.619 13.2607 22.5783 13.4947C22.6869 13.4259 22.8091 13.4396 22.9041 13.3846C23.3115 13.1781 23.5695 13.2194 23.9904 13.1643C24.5878 13.0955 25.3618 13.2194 25.7284 13.4947C25.837 13.5773 25.9592 13.6461 26.0542 13.715C25.9728 13.4396 25.9456 13.0128 25.9456 12.7237C25.9456 12.2694 26.1493 11.9941 26.3801 11.7325C26.5566 11.5535 26.7739 11.5122 27.0319 11.5122C27.6429 11.5122 27.9959 12.0216 28.1181 12.7237C28.1724 13.0404 28.091 13.4534 27.9009 13.715C27.7244 13.9628 27.4121 14.1005 27.1405 14.1555C28.091 14.4171 29.1501 14.6512 29.0957 15.4772C29.0278 16.6336 28.6341 17.1568 27.6836 17.4597C26.9232 17.6937 25.5926 19.0016 24.5335 19.0016C24.0718 19.0016 23.3929 19.0291 23.0128 18.8915C22.6461 18.7538 22.1981 18.1756 21.6006 17.6799C21.0032 17.1843 20.4193 16.6061 20.4058 15.9177C20.3786 15.1881 20.8267 14.954 21.492 14.3758C21.5599 14.307 21.6142 14.2244 21.7093 14.1555C21.5327 14.1142 21.492 13.949 21.2748 13.715C21.1933 13.6048 20.9489 13.123 20.9489 12.7237C20.9489 12.4759 20.8538 12.1593 21.0575 11.8426Z" fill="#6B6B6B"/>
<path d="M13.0232 33.3154C13.4288 32.8904 13.7682 32.5348 14.4314 32.5486C15.2597 32.5761 16.7397 34.6825 17.4729 35.8527C18.2061 37.0367 18.4234 37.3671 19.5368 39.1568C20.6502 40.9328 21.5735 41.3458 21.6006 42.9015C21.6278 44.4572 21.397 44.292 20.623 44.9941C19.8355 45.6963 19.5232 46.0817 18.2333 45.9854C16.9434 45.8752 15.056 44.7601 13.0193 44.3333L12.9371 44.3157C9.20779 43.519 8.54905 43.3783 8.13118 42.6812C7.90036 42.282 8.02256 41.9103 8.13118 41.3596C8.21265 40.919 8.34843 40.4234 8.34843 39.7075C8.36201 38.0279 7.77816 37.0229 8.23981 36.4034C8.71504 35.7701 10.6567 35.8389 11.3899 35.302C12.1231 34.7651 12.5984 33.7463 13.0193 33.3195L13.0232 33.3154Z" fill="#6B6B6B"/>
<path d="M31.7027 33.6499C32.1372 33.3746 32.1644 33.3195 32.6804 33.3195C33.1963 33.3195 33.4815 33.3608 33.658 33.5398C33.8209 33.705 33.7123 34.1043 33.658 34.6412C33.6037 35.1781 33.8345 35.302 34.0925 35.5223C34.3369 35.7288 34.6084 36.0041 35.396 36.073C36.1971 36.128 36.4415 35.9766 36.8081 35.7426C37.1747 35.5085 37.6907 35.1093 37.8943 34.8615C38.0844 34.6274 38.5732 33.7601 38.6547 33.7601C38.7362 33.7601 39.3336 33.6499 39.6323 34.0905C40.1347 34.8339 39.5916 35.8114 39.9582 36.4034C40.5556 37.3671 41.7777 38.3446 42.2393 38.6061C42.5788 38.8126 43.0133 38.9916 42.9997 39.5974C42.9725 40.272 42.6331 40.3959 42.4566 40.5886C42.0764 40.9603 40.2298 41.9378 38.9806 42.7914C37.4055 43.879 36.8896 44.3608 36.3736 44.884C35.5725 45.6825 34.7578 45.9854 33.5493 45.9854C32.3545 45.9854 31.8521 45.7789 31.4855 45.4347C31.1053 45.1043 30.6844 44.2645 30.7251 43.0117C30.7658 41.7726 31.0781 40.6437 31.2682 38.7163C31.3497 37.8902 31.3769 36.8715 31.3769 35.9628C31.3769 34.8201 31.4719 33.8014 31.7027 33.6499Z" fill="#6B6B6B"/>
<path d="M18.016 35.5223C17.4186 34.5723 16.9298 33.9528 16.4953 33.4297C16.5224 33.4572 16.5632 33.4021 16.6039 33.4297C17.0927 33.8427 17.5679 34.2832 18.3419 34.9716C19.1566 35.6875 20.8267 36.899 21.0575 37.2845C21.3019 37.6837 21.5327 38.3859 21.1661 38.9366C21.0168 39.1568 20.7452 39.1981 20.4058 39.267C20.3107 39.1293 20.1749 38.9916 20.0799 38.8264C19.4825 37.8627 19.1702 37.3258 18.885 36.8439C18.6406 36.4447 18.3555 36.073 18.016 35.5223Z" fill="#6B6B6B"/>
<path d="M25.9456 41.5799C27.928 41.2081 29.4759 40.1343 30.6165 39.0467C30.535 39.7764 30.3857 40.4785 30.2906 41.0292C30.1548 41.7726 30.0869 42.3233 30.0734 43.0117C30.0598 43.3834 30.019 43.7964 30.0734 44.113C28.0774 43.6449 27.2763 43.7551 24.8594 43.8928C23.1757 43.9891 22.7276 43.879 22.2524 44.0029C22.3067 43.7276 22.266 43.4522 22.2524 43.0117C22.2388 42.5023 22.1845 42.0617 22.0351 41.69C22.7955 41.8965 24.0718 41.9378 25.9456 41.5799Z" fill="#6B6B6B"/>
</svg>
